<svg viewBox="0 0 1637.46533203125 400.0000305175781" xmlns="http://www.w3.org/2000/svg"><g><g><g><g><g><line x1="118" y1="378" x2="113" y2="378" style="visibility: inherit;" fill="rgb(0, 0, 0)" stroke="rgb(204, 204, 204)" stroke-width="1px"></line><line x1="118" y1="343.6363636363636" x2="113" y2="343.6363636363636" style="visibility: inherit;" fill="rgb(0, 0, 0)" stroke="rgb(204, 204, 204)" stroke-width="1px"></line><line x1="118" y1="309.27272727272725" x2="113" y2="309.27272727272725" style="visibility: inherit;" fill="rgb(0, 0, 0)" stroke="rgb(204, 204, 204)" stroke-width="1px"></line><line x1="118" y1="274.9090909090909" x2="113" y2="274.9090909090909" style="visibility: inherit;" fill="rgb(0, 0, 0)" stroke="rgb(204, 204, 204)" stroke-width="1px"></line><line x1="118" y1="240.54545454545456" x2="113" y2="240.54545454545456" style="visibility: inherit;" fill="rgb(0, 0, 0)" stroke="rgb(204, 204, 204)" stroke-width="1px"></line><line x1="118" y1="206.1818181818182" x2="113" y2="206.1818181818182" style="visibility: inherit;" fill="rgb(0, 0, 0)" stroke="rgb(204, 204, 204)" stroke-width="1px"></line><line x1="118" y1="171.81818181818178" x2="113" y2="171.81818181818178" style="visibility: inherit;" fill="rgb(0, 0, 0)" stroke="rgb(204, 204, 204)" stroke-width="1px"></line><line x1="118" y1="137.45454545454547" x2="113" y2="137.45454545454547" style="visibility: inherit;" fill="rgb(0, 0, 0)" stroke="rgb(204, 204, 204)" stroke-width="1px"></line><line x1="118" y1="103.09090909090907" x2="113" y2="103.09090909090907" style="visibility: inherit;" fill="rgb(0, 0, 0)" stroke="rgb(204, 204, 204)" stroke-width="1px"></line><line x1="118" y1="68.72727272727269" x2="113" y2="68.72727272727269" style="visibility: inherit;" fill="rgb(0, 0, 0)" stroke="rgb(204, 204, 204)" stroke-width="1px"></line><line x1="118" y1="34.363636363636374" x2="113" y2="34.363636363636374" style="visibility: inherit;" fill="rgb(0, 0, 0)" stroke="rgb(204, 204, 204)" stroke-width="1px"></line><line x1="118" y1="0" x2="113" y2="0" style="visibility: inherit;" fill="rgb(0, 0, 0)" stroke="rgb(204, 204, 204)" stroke-width="1px"></line></g><g transform="translate(108, 0)"><text x="0" y="378" dx="0em" dy="0.3em" style="text-anchor: end; visibility: hidden; font-family: &quot;Helvetica Neue&quot;, sans-serif; font-size: 12px; font-weight: 200;" fill="rgb(50, 49, 63)" stroke="none" stroke-width="1px">-1.000e-4</text><text x="0" y="343.6363636363636" dx="0em" dy="0.3em" style="text-anchor: end; visibility: inherit; font-family: &quot;Helvetica Neue&quot;, sans-serif; font-size: 12px; font-weight: 200;" fill="rgb(50, 49, 63)" stroke="none" stroke-width="1px">0.00</text><text x="0" y="309.27272727272725" dx="0em" dy="0.3em" style="text-anchor: end; visibility: inherit; font-family: &quot;Helvetica Neue&quot;, sans-serif; font-size: 12px; font-weight: 200;" fill="rgb(50, 49, 63)" stroke="none" stroke-width="1px">1.000e-4</text><text x="0" y="274.9090909090909" dx="0em" dy="0.3em" style="text-anchor: end; visibility: inherit; font-family: &quot;Helvetica Neue&quot;, sans-serif; font-size: 12px; font-weight: 200;" fill="rgb(50, 49, 63)" stroke="none" stroke-width="1px">2.000e-4</text><text x="0" y="240.54545454545456" dx="0em" dy="0.3em" style="text-anchor: end; visibility: inherit; font-family: &quot;Helvetica Neue&quot;, sans-serif; font-size: 12px; font-weight: 200;" fill="rgb(50, 49, 63)" stroke="none" stroke-width="1px">3.000e-4</text><text x="0" y="206.1818181818182" dx="0em" dy="0.3em" style="text-anchor: end; visibility: inherit; font-family: &quot;Helvetica Neue&quot;, sans-serif; font-size: 12px; font-weight: 200;" fill="rgb(50, 49, 63)" stroke="none" stroke-width="1px">4.000e-4</text><text x="0" y="171.81818181818178" dx="0em" dy="0.3em" style="text-anchor: end; visibility: inherit; font-family: &quot;Helvetica Neue&quot;, sans-serif; font-size: 12px; font-weight: 200;" fill="rgb(50, 49, 63)" stroke="none" stroke-width="1px">5.000e-4</text><text x="0" y="137.45454545454547" dx="0em" dy="0.3em" style="text-anchor: end; visibility: inherit; font-family: &quot;Helvetica Neue&quot;, sans-serif; font-size: 12px; font-weight: 200;" fill="rgb(50, 49, 63)" stroke="none" stroke-width="1px">6.000e-4</text><text x="0" y="103.09090909090907" dx="0em" dy="0.3em" style="text-anchor: end; visibility: inherit; font-family: &quot;Helvetica Neue&quot;, sans-serif; font-size: 12px; font-weight: 200;" fill="rgb(50, 49, 63)" stroke="none" stroke-width="1px">7.000e-4</text><text x="0" y="68.72727272727269" dx="0em" dy="0.3em" style="text-anchor: end; visibility: inherit; font-family: &quot;Helvetica Neue&quot;, sans-serif; font-size: 12px; font-weight: 200;" fill="rgb(50, 49, 63)" stroke="none" stroke-width="1px">8.000e-4</text><text x="0" y="34.363636363636374" dx="0em" dy="0.3em" style="text-anchor: end; visibility: inherit; font-family: &quot;Helvetica Neue&quot;, sans-serif; font-size: 12px; font-weight: 200;" fill="rgb(50, 49, 63)" stroke="none" stroke-width="1px">9.000e-4</text><text x="0" y="0" dx="0em" dy="0.3em" style="text-anchor: end; visibility: hidden; font-family: &quot;Helvetica Neue&quot;, sans-serif; font-size: 12px; font-weight: 200;" fill="rgb(50, 49, 63)" stroke="none" stroke-width="1px">1.000e-3</text></g><line x1="118" y1="0" x2="118" y2="378" fill="rgb(0, 0, 0)" stroke="rgb(204, 204, 204)" stroke-width="1px"></line></g></g><g transform="translate(118, 0)" clip-path="url(#clip_0)"><clipPath id="clip_0"><rect width="1519" height="377"></rect></clipPath><g><g><g><line x1="0" y1="0" x2="0" y2="378" fill="rgb(0, 0, 0)" stroke="rgb(60, 60, 60)" stroke-width="1px" opacity="0.25"></line><line x1="116.8823076923077" y1="0" x2="116.8823076923077" y2="378" fill="rgb(0, 0, 0)" stroke="rgb(60, 60, 60)" stroke-width="1px" opacity="0.25"></line><line x1="233.7646153846154" y1="0" x2="233.7646153846154" y2="378" fill="rgb(0, 0, 0)" stroke="rgb(60, 60, 60)" stroke-width="1px" opacity="0.25"></line><line x1="350.6469230769231" y1="0" x2="350.6469230769231" y2="378" fill="rgb(0, 0, 0)" stroke="rgb(60, 60, 60)" stroke-width="1px" opacity="0.25"></line><line x1="467.5292307692308" y1="0" x2="467.5292307692308" y2="378" fill="rgb(0, 0, 0)" stroke="rgb(60, 60, 60)" stroke-width="1px" opacity="0.25"></line><line x1="584.4115384615385" y1="0" x2="584.4115384615385" y2="378" fill="rgb(0, 0, 0)" stroke="rgb(60, 60, 60)" stroke-width="1px" opacity="0.25"></line><line x1="701.2938461538462" y1="0" x2="701.2938461538462" y2="378" fill="rgb(0, 0, 0)" stroke="rgb(60, 60, 60)" stroke-width="1px" opacity="0.25"></line><line x1="818.1761538461539" y1="0" x2="818.1761538461539" y2="378" fill="rgb(0, 0, 0)" stroke="rgb(60, 60, 60)" stroke-width="1px" opacity="0.25"></line><line x1="935.0584615384616" y1="0" x2="935.0584615384616" y2="378" fill="rgb(0, 0, 0)" stroke="rgb(60, 60, 60)" stroke-width="1px" opacity="0.25"></line><line x1="1051.9407692307693" y1="0" x2="1051.9407692307693" y2="378" fill="rgb(0, 0, 0)" stroke="rgb(60, 60, 60)" stroke-width="1px" opacity="0.25"></line><line x1="1168.823076923077" y1="0" x2="1168.823076923077" y2="378" fill="rgb(0, 0, 0)" stroke="rgb(60, 60, 60)" stroke-width="1px" opacity="0.25"></line><line x1="1285.7053846153847" y1="0" x2="1285.7053846153847" y2="378" fill="rgb(0, 0, 0)" stroke="rgb(60, 60, 60)" stroke-width="1px" opacity="0.25"></line><line x1="1402.5876923076924" y1="0" x2="1402.5876923076924" y2="378" fill="rgb(0, 0, 0)" stroke="rgb(60, 60, 60)" stroke-width="1px" opacity="0.25"></line><line x1="1519.47" y1="0" x2="1519.47" y2="378" fill="rgb(0, 0, 0)" stroke="rgb(60, 60, 60)" stroke-width="1px" opacity="0.25"></line></g><g><line x1="0" y1="378" x2="1519.47" y2="378" fill="rgb(0, 0, 0)" stroke="rgb(60, 60, 60)" stroke-width="1px" opacity="0.25"></line><line x1="0" y1="343.6363636363636" x2="1519.47" y2="343.6363636363636" fill="rgb(0, 0, 0)" stroke="rgb(60, 60, 60)" stroke-width="1px" opacity="0.25"></line><line x1="0" y1="309.27272727272725" x2="1519.47" y2="309.27272727272725" fill="rgb(0, 0, 0)" stroke="rgb(60, 60, 60)" stroke-width="1px" opacity="0.25"></line><line x1="0" y1="274.9090909090909" x2="1519.47" y2="274.9090909090909" fill="rgb(0, 0, 0)" stroke="rgb(60, 60, 60)" stroke-width="1px" opacity="0.25"></line><line x1="0" y1="240.54545454545456" x2="1519.47" y2="240.54545454545456" fill="rgb(0, 0, 0)" stroke="rgb(60, 60, 60)" stroke-width="1px" opacity="0.25"></line><line x1="0" y1="206.1818181818182" x2="1519.47" y2="206.1818181818182" fill="rgb(0, 0, 0)" stroke="rgb(60, 60, 60)" stroke-width="1px" opacity="0.25"></line><line x1="0" y1="171.81818181818178" x2="1519.47" y2="171.81818181818178" fill="rgb(0, 0, 0)" stroke="rgb(60, 60, 60)" stroke-width="1px" opacity="0.25"></line><line x1="0" y1="137.45454545454547" x2="1519.47" y2="137.45454545454547" fill="rgb(0, 0, 0)" stroke="rgb(60, 60, 60)" stroke-width="1px" opacity="0.25"></line><line x1="0" y1="103.09090909090907" x2="1519.47" y2="103.09090909090907" fill="rgb(0, 0, 0)" stroke="rgb(60, 60, 60)" stroke-width="1px" opacity="0.25"></line><line x1="0" y1="68.72727272727269" x2="1519.47" y2="68.72727272727269" fill="rgb(0, 0, 0)" stroke="rgb(60, 60, 60)" stroke-width="1px" opacity="0.25"></line><line x1="0" y1="34.363636363636374" x2="1519.47" y2="34.363636363636374" fill="rgb(0, 0, 0)" stroke="rgb(60, 60, 60)" stroke-width="1px" opacity="0.25"></line><line x1="0" y1="0" x2="1519.47" y2="0" fill="rgb(0, 0, 0)" stroke="rgb(60, 60, 60)" stroke-width="1px" opacity="0.25"></line></g></g></g><g><g><line x1="0" y1="343.6363636363636" x2="1519.47" y2="343.6363636363636" fill="rgb(0, 0, 0)" stroke="rgb(153, 153, 153)" stroke-width="1.5px"></line></g></g><g><g><line x1="116.8823076923077" y1="0" x2="116.8823076923077" y2="378" fill="rgb(0, 0, 0)" stroke="rgb(153, 153, 153)" stroke-width="1.5px"></line></g></g><g><g><g><g><g><path stroke="rgb(255, 112, 67)" stroke-width="2px" d="M116.89399592307693,343.59391544728356L118.062819,339.3490970031946L120.40046515384616,330.85945930437776L121.56928823076923,326.61464029870166L122.73811130769231,322.36982129302555L123.9069343846154,318.1250022873494L125.07575746153846,313.8801832816733L126.24458053846153,309.6353642759972L127.41340361538462,305.39054527032107L128.5822266923077,301.14572876492855L129.75104976923078,296.9009072589688L130.91987284615385,292.6560907535763L132.08869592307693,288.4112742481838L133.257519,284.16644774165684L134.42634207692308,279.9216312362643L135.59516515384615,275.676819731439L136.76398823076923,271.43199822547933L137.9328113076923,267.1871817200868L139.10163438461538,262.94236021412706L140.27045746153846,258.6975387081673L141.43928053846156,254.45272720334208L142.6081036153846,250.20790569738233L143.77692669230768,245.96308419142258L144.9457497692308,241.71826268546286L146.11457284615386,237.4734411795031L147.28339592307694,233.22862967467782L148.45221899999999,228.9838081687181L150.78986515384616,220.49417515793309L151.95868823076924,216.24935365197334L153.12751130769232,212.00454214714807L154.2963343846154,207.75972064118832L155.46515746153847,203.51489913522857L156.63398053846154,199.27007762926885L158.9716266923077,190.78044461848384L160.14044976923077,186.53562311252412L161.30927284615385,182.29080160656437L162.47809592307692,178.04598010060462L163.646919,173.80115859464487L165.98456515384615,165.31153558499432L167.15338823076922,161.0667140790346L168.3222113076923,156.82189257307485L169.4910343846154,152.5770710671151L170.65985746153845,148.3322495611554L171.82868053846153,144.08742805519566L174.1663266923077,135.59778504327616L175.33514976923078,131.35298353958535L177.67279592307693,122.86334052766588L178.841619,118.61851902170616L180.01044207692308,114.37369751574641L181.17926515384616,110.12887600978667L182.34808823076924,105.88405450382692L183.5169113076923,101.63923299786717L185.85455746153846,93.14960998821664L187.02338053846154,88.90478848225695L188.1922036153846,84.6599669762972L189.3610266923077,80.41514547033745L190.52984976923076,76.1703239643777L191.69867284615384,71.92550245841795L192.86749592307694,67.6806809524582L194.03631900000002,63.435859446498455L195.2051420769231,59.19103794053876L196.37396515384617,54.946236436847926L197.54278823076922,50.701414930888234L199.88043438461537,42.211771918968736L201.04925746153847,37.96695041300899L202.21808053846155,33.72212890704924L203.38690361538463,29.47730740108949L204.5557266923077,25.23248589512974L205.72454976923078,20.98770439370793L206.89337284615388,16.74288288774818L208.0621959230769,12.498061381788432L209.23101899999997,8.253239875828683L211.56866515384615,6.17444407025522L212.73748823076923,8.238178167322815L215.07513438461538,12.254573762078167L216.24395746153849,14.209435509348452L217.41278053846156,16.130073374475955L218.58160361538464,18.017527475445092L219.75042669230768,19.8726979143579L220.91924976923076,21.696504795585156L223.2568959230769,25.25358828885311L224.42571900000002,26.988465082408368L225.5945420769231,28.69527869265187L226.76336515384617,30.374809208072065L227.93218823076924,32.027736705812515L229.10101130769232,33.65478126755494L230.2698343846154,35.25658296590501L232.60748053846152,38.38713807646525L233.77630361538462,39.9170316180045L234.9451266923077,41.424182579768L236.11394976923077,42.90915102528578L237.28277284615385,44.37239700674337L238.45159592307692,45.814500589939655L239.62041900000003,47.235961831598104L240.7892420769231,48.637240783904076L241.95806515384618,50.01885750584984L243.12688823076923,51.38121204281396L244.2957113076923,52.72480445151979L245.46453438461538,54.050054779614925L246.63335746153845,55.357323067940115L247.80218053846153,56.64704936641186L248.97100361538463,57.91961371813983L250.1398266923077,59.17543617077172L251.30864976923078,60.41479675607246L252.47747284615386,61.63811552168971L253.64629592307693,62.845712503926336L254.81511899999998,64.03792774135417L255.98394207692306,65.2151012725451L257.15276515384613,66.37751312926412L258.32158823076924,67.52550335008311L259.4904113076923,68.65935196676713L260.6592343846154,69.77933901108128L261.8280574615385,70.88574451479047L262.99688053846154,71.97882850739092L264.16570361538464,73.05889102291655L265.3345266923077,74.12619209086353L267.67217284615384,76.22338998385453L268.84099592307695,77.25382687015968L270.009819,78.27242241325706L272.34746515384614,80.27506958100605L273.51628823076925,81.25950124876744L275.8539343846154,83.19574088366193L277.0227574615385,84.1479288939048L279.3604036153846,86.02138140662151L281.69804976923075,87.85482938147408L282.86687284615385,88.7570117193867L284.03569592307696,89.64971298182553L285.204519,90.53307318467307L286.3733420769231,91.40729235061866L287.54216515384616,92.27251049554485L289.8798113076923,93.9765837949447L291.04863438461535,94.81569897891444L292.21745746153846,95.64645321447063L293.38628053846156,96.46890650841999L295.7239266923077,98.0896103509109L296.89274976923076,98.8880809244107L298.06157284615387,99.67881061983377L299.23039592307697,100.46193945306271L300.39921899999996,101.23754743317312L301.56804207692306,102.00581458058548L302.73686515384617,102.76680090210658L305.0745113076923,104.26749113100499L306.24333438461537,105.00737505880267L308.5809805384616,106.4668006068942L309.7498036153846,107.1865622521463L312.0874497692308,108.6065833304416L313.2562728461538,109.30708279071206L314.4250959230769,110.00136154534465L316.7627420769231,111.371596976268L317.9315651538462,112.04771367071027L319.1003882307692,112.71796970035541L321.4380343846154,114.04123980382627L322.6068574615385,114.69437389126557L323.77568053846153,115.34196735021067L324.94450361538463,115.9841401942752L327.2821497692308,117.25232404910702L328.45097284615383,117.87853508256376L329.61979592307694,118.49956552836704L330.78861900000004,119.11549539559263L331.9574420769231,119.72640469331634L333.1262651538462,120.33237343061376L334.29508823076924,120.933401607485L335.4639113076923,121.5296292398125L336.6327343846154,122.12111633440313L337.80155746153844,122.70788289352575L338.97038053846154,123.28998892398718L340.13920361538464,123.86753443713215L343.64567284615384,125.57332793166015L348.32096515384615,127.78709904798731L349.48978823076925,128.33010064268652L350.6586113076923,128.86902177452365L351.8274343846154,129.40390244803646L352.99625746153845,129.9348026700318L354.16508053846155,130.46178244731644L356.5027266923077,131.50416068817404L357.67154976923075,132.01965916309166L358.84037284615385,132.53139721145007L360.0091959230769,133.03945484232497L361.178019,133.54383205571636L364.68448823076926,135.0355812704021L365.8533113076923,135.52579687738958L367.0221343846154,136.01259209638968L368.19095746153846,136.4959669274024L369.3597805384615,136.97600137950346L370.5286036153846,137.45269545269284L371.6974266923077,137.92610915377736L372.86624976923076,138.39630248956382L374.03507284615387,138.86327546005222L375.2038959230769,139.32704806751147L376.372719,139.78770032101735L377.54154207692306,140.24525222283873L379.8791882307693,141.15119498731062L381.0480113076923,141.5996458567679L382.2168343846154,142.0451363904232L384.5544805384616,142.92735646394166L385.7233036153846,143.36412600834262L386.89212669230767,143.7980552305552L388.0609497692308,144.22918413511732L389.2297728461538,144.6575527265668L390.3985959230769,145.08314100263473L391.567419,145.50602897239682L393.9050651538461,146.34376399981025L395.0738882307693,146.75865106199953L397.41153438461544,147.5806643060324L398.5803574615385,147.98783049241385L399.74918053846153,148.39247639290988L402.0868266923077,149.19424734078348L403.2556497692308,149.5914723995057L404.42447284615383,149.9862571814182L405.59329592307694,150.37864169105887L406.762119,150.76866593296555L407.93094207692315,151.15630990486932L409.09976515384614,151.5416536158459L410.2685882307692,151.92467706362632L411.43741130769234,152.3054202527485L412.60623438461533,152.6839031854814L413.7750574615385,153.0601258618249L414.94388053846154,153.43416829085484L416.11270361538465,153.80601047030225L418.4503497692308,154.54317408952522L419.61917284615384,154.90857553837654L420.78799592307695,155.271856746721L421.956819,155.6330377168276L424.29446515384615,156.3491989536719L425.4632882307692,156.70423922721636L426.63211130769236,157.05725927159867L428.9697574615385,157.75733868422154L431.30740361538466,158.4496172119609L433.64504976923075,159.13419486616147L434.81387284615386,159.47365337220785L435.9826959230769,159.8112516672435L437.151519,160.1469897512685L438.32034207692305,160.4809076288207L440.6579882307692,161.1432827645066L441.82681130769237,161.4717800271782L442.9956343846154,161.79853709245268L444.1644574615384,162.1235339580612L445.33328053846157,162.44679062627256L446.5021036153846,162.76830709708688L447.6709266923077,163.08812337504193L448.83974976923076,163.40625946240667L452.346219,164.35068659230387L454.6838651538462,164.9720970812169L457.02151130769226,165.58710684407163L458.1903343846154,165.89222145436165L460.5279805384616,166.49781014854935L461.6968036153846,166.79828423244712L462.8656266923077,167.097238143906L464.0344497692308,167.394691885195L465.2032728461539,167.69062545404515L466.3720959230769,167.9850988572633L467.540919,168.2780920925804L468.7097420769231,168.5696251622655L469.8785651538461,168.8596980663186L471.04738823076923,169.1483308070085L472.2162113076923,169.4355433866043L475.7226805384616,170.28876017017123L476.89150361538464,170.57037211446598L478.06032669230774,170.85064390674233L479.2291497692308,171.1295555447313L480.39797284615383,171.40708702616394L482.735619,171.95820954204962L483.9044420769231,172.23180057650265L485.07326515384614,172.50409146347508L486.24208823076924,172.775062200698L487.4109113076923,173.04475279270923L488.57973438461545,173.31318324177778L489.7485574615385,173.58035354790363L490.9173805384615,173.84626371108672L492.08620361538465,174.11093373359606L493.2550266923077,174.37436361543155L494.4238497692308,174.63659336113116L495.59267284615385,174.89758296615696L496.76149592307695,175.15737243504688L497.930319,175.4159617678008L499.0991420769231,175.6733709666878L500.26796515384615,175.92960003170776L501.4367882307693,176.18465896399525L502.6056113076923,176.4385577646846L503.77443438461535,176.69129643377593L506.1120805384615,177.19337338624015L508.4497266923077,177.6909598293291L509.6185497692308,177.9380778608505L510.78737284615386,178.18409576758063L511.95619592307696,178.4290135495195L513.1250190000001,178.67286121007055L514.293842076923,178.91562874809924L515.4626651538462,179.15732616474006L516.6314882307693,179.397953459993L517.8003113076924,179.63754063726148L518.9691343846154,179.87608769654548L520.1379574615385,180.11357463557613L521.3067805384616,180.35004145889118L522.4756036153847,180.58548816649076L523.6444266923077,180.81992475950923L524.8132497692308,181.0533512379466L525.9820728461539,181.28576760180295L527.1508959230769,181.51719385334715L528.3197190000001,181.7476299925792L529.4885420769231,181.97709602176803L530.6573651538462,182.20557193864477L531.8261882307693,182.43308774661273L532.9950113076924,182.6596534468064L534.1638343846154,182.88526903922585L535.3326574615385,183.10992452273652L536.5014805384616,183.33364990074188L537.6703036153846,183.55644517324185L538.8391266923077,183.77831034023654L540.0079497692308,183.99926540399477L541.1767728461539,184.21929036224768L542.3455959230769,184.43841521839863L543.5144190000001,184.65663997244766L544.6832420769231,184.87396462439474L545.8520651538462,185.09041917764327L547.0208882307693,185.30595362652093L549.3585343846154,185.73445223271847L550.5273574615385,185.94738638663497L551.6961805384616,186.15948044525626L552.8650036153846,186.37072440744802L554.0338266923077,186.5810982709412L555.2026497692308,186.79063203913924L556.3714728461539,186.99933571317658L557.5402959230769,187.2072092930532L558.7091190000001,187.41426277990368L559.8779420769231,187.62048617259344L561.0467651538461,187.82589947339147L562.2155882307693,188.03051268343222L563.3844113076923,188.23431580158118L565.7220574615385,188.63952176560733L566.8908805384616,188.84093461261895L568.0597036153846,189.04158737341112L569.2285266923077,189.24143004231155L570.3973497692308,189.44052262612703L571.5661728461538,189.63884512258863L572.7349959230769,189.83638753056186L573.903819,190.03318985458463L575.0726420769231,190.22923209238797L576.2414651538461,190.42452424510637L578.5791113076923,190.81288829869166L579.7479343846154,191.0059601995586L580.9167574615385,191.1983020176095L582.0855805384616,191.38992375397885L583.2544036153846,191.5808354098011L585.5920497692308,191.96047847413203L586.7608728461538,192.14925988831303L587.9296959230769,192.33730121854353L589.098519,192.52467247276482L590.2673420769231,192.71133364643902L591.4361651538461,192.897324744104L593.7738113076923,193.26722670346498L596.1114574615385,193.63440835425124L597.2802805384615,193.81699906619772L598.4491036153846,193.99893970440397L600.7867497692308,194.36080075165427L601.9555728461538,194.54075116410175L603.1243959230769,194.72005150280893L605.462042076923,195.0767419635403L606.6308651538461,195.25412208443L607.7996882307692,195.43086213271388L608.9685113076923,195.60699211179534L610.1373343846154,195.78247201713648L611.3061574615385,195.95735185440967L612.4749805384615,196.1315816179426L613.6438036153846,196.3052113134075L614.8126266923077,196.47825094193897L617.1502728461538,196.82245998685673L619.487919,197.16427876063707L621.8255651538461,197.50372726554897L625.3320343846154,198.00850452431902L626.5008574615385,198.17558347670868L628.8385036153846,198.50806119089776L630.0073266923077,198.67343995042822L631.1761497692307,198.83826864756304L632.3449728461538,199.00252728003332L633.5137959230769,199.16623585010794L635.851442076923,199.49198280080137L637.0202651538463,199.65403118255463L638.1890882307692,199.8155195007778L639.3579113076923,199.97648776000872L640.5267343846155,200.13689595570955L641.6955574615384,200.29678409241816L642.8643805384615,200.4561321678656L644.0332036153847,200.61497018545526L645.2020266923078,200.77324813951483L646.3708497692307,200.9310260368511L647.5396728461538,201.08827387406066L648.708495923077,201.245001652278L651.046142076923,201.55690703287044L652.2149651538462,201.71211463864893L653.3837882307693,201.86678218316624L654.5526113076922,202.0209696732292L655.7214343846155,202.17463710429993L656.8902574615385,202.32781447978184L658.0590805384616,202.48050179967487L659.2279036153847,202.63267906171015L660.3967266923078,202.78437626929107L661.5655497692308,202.93558342128316L662.7343728461539,203.0863005176864L663.903195923077,203.23653755963525L665.072019,203.38630454826423L666.2408420769231,203.53558148130435L667.4096651538462,203.6843883610246L668.5784882307693,203.83270518515596L669.7473113076923,203.9805719582364L670.9161343846155,204.12795867686245L672.0849574615385,204.27488534330305L674.4226036153847,204.5673485184935L675.5914266923077,204.71288502724335L679.097895923077,205.146794247187L680.266719,205.29052055059847L681.4355420769231,205.43380680409345L682.6043651538462,205.57666300880638L683.7731882307693,205.7190591613339L684.9420113076923,205.86102526507932L686.1108343846154,206.0025413177738L687.2796574615385,206.14362732168624L688.4484805384615,206.28428327681664L689.6173036153847,206.42450918316501L690.7861266923077,206.56428503846243L691.9549497692308,206.7036808506501L693.1237728461539,206.84260660951787L696.6302420769231,207.25692360704258L697.7990651538462,207.39418917758897L700.1367113076923,207.6674901791425L703.6431805384615,208.07437633375892L704.8120036153847,208.20919162636116L705.9808266923077,208.34359687245026L707.1496497692308,208.4776220754297L708.3184728461539,208.61124723303047L709.4872959230769,208.74446234411815L710.656119,208.8772974120961L711.8249420769231,209.00974243582988L712.9937651538462,209.14178741418502L714.1625882307692,209.273442348296L715.3314113076923,209.40471723929724L717.6690574615385,209.66612689197063L718.8378805384615,209.79626165364274L720.0067036153847,209.9260063710707L721.1755266923077,210.05537104538897L722.3443497692308,210.18437567886642L723.5131728461539,210.3130002692342L724.6819959230769,210.4412548176267L727.0196420769231,210.69666378962046L728.1884651538462,210.8238182132217L729.3572882307692,210.95059259371325L730.5261113076923,211.0770169344985L737.5390497692308,211.82805212722585L739.8766959230769,212.07558020526037L741.045519,212.19881418415093L742.2143420769231,212.32170812446964L743.3831651538461,212.4442620262165L744.5519882307692,212.56646588825706L745.7208113076923,212.6883497139947L746.8896343846154,212.8098634977571L748.0584574615384,212.93104724408212L749.2272805384616,213.05191095410424L750.3961036153846,213.17242462442005L751.5649266923077,213.29261825843292L752.7337497692308,213.41246185273948L753.9025728461539,213.5319954118776L755.0713959230769,213.65117893130943L756.240219,213.77006241670725L757.4090420769231,213.88859586239877L758.5778651538461,214.00682927405632L760.9155113076924,214.24228598279032L762.0843343846154,214.3595392832702L763.2531574615384,214.47648254858163L765.5908036153847,214.70941897143018L766.7596266923077,214.82541212896732L767.9284497692308,214.9410752490671L769.0972728461538,215.05644833626735L770.2660959230768,215.17150138716468L771.434919,215.2862644051625L772.6037420769231,215.40070738685742L773.7725651538461,215.5148403333839L774.9413882307692,215.62867324587637L776.1102113076925,215.74220612433487L777.2790343846154,215.85542896762493L778.4478574615384,215.96836177801546L779.6166805384615,216.080994554372L780.7855036153845,216.19331729556012L781.9543266923077,216.3053500038487L783.1231497692308,216.41710268037227L784.2919728461538,216.52855532286182L785.4607959230768,216.63970793131742L786.629619,216.75055050460455L787.7984420769232,216.86113304839554L790.1360882307692,217.08141803614458L791.3049113076922,217.19113048123705L792.4737343846155,217.30056289456448L793.6425574615384,217.40970527499238L794.8113805384615,217.51855762252077L795.9802036153845,217.62713993941858L797.1490266923078,217.7354522256858L798.3178497692309,217.84347447905353L799.4866728461539,217.95121670065618L800.6554959230768,218.05867889049378L801.824319,218.16586104856637L802.9931420769232,218.27279317827728L804.1619651538462,218.37943527508867L805.3307882307693,218.4858073412695L807.6684343846155,218.69775138287383L808.8372574615385,218.80330335602844L810.0060805384616,218.9086053008214L811.1749036153846,219.01363721498373L812.3437266923077,219.11839909851554L813.5125497692309,219.22291095368567L814.6813728461539,219.3271527782252L815.8501959230769,219.43113457326862L817.019019,219.53484633768147L818.1878420769232,219.63830807373267L819.3566651538462,219.74151978142223L820.5254882307693,219.8444514573467L821.6943113076923,219.94714310604402L822.8631343846155,220.04956472411075L824.0319574615385,220.15175631608477L825.2007805384616,220.2536778774282L827.5384266923077,220.4567709150301L828.7072497692309,220.55795239242303L829.8760728461539,220.6588638391854L831.044895923077,220.75954525985503L832.213719,220.859976652163L833.3825420769232,220.96015801610935L835.7201882307693,221.159790661186L840.3954805384616,221.55614562120968L841.5643036153846,221.6546467945657L842.7331266923077,221.75289793956009L843.9019497692309,221.85089905619284L845.0707728461539,221.9486901490018L846.239595923077,222.04622121231463L847.408419,222.1435322506692L848.577242076923,222.24061326293108L852.0837113076923,222.53044613975695L853.2525343846154,222.62659704651347L854.4213574615385,222.72251792717728L855.5901805384616,222.8182187828828L857.9278266923077,223.00893041601574L859.0966497692307,223.1039511945776L860.2654728461539,223.19874194704673L862.603119,223.38766337711027L863.771942076923,223.48178405357018L864.9407651538462,223.57570470734078L866.1095882307693,223.66938533388418L867.2784113076923,223.7628559366038L868.4472343846154,223.8560965132307L869.6160574615386,223.9491270660338L870.7848805384616,224.04194759501314L871.9537036153846,224.13454809903422L873.1225266923077,224.22693857923153L874.2913497692307,224.31910903447053L875.4601728461539,224.41105946475133L876.628995923077,224.5028098723428L877.797819,224.59433025384155L878.966642076923,224.68566061378542L880.1354651538462,224.77677094877106L883.6419343846154,225.04887181418863L884.8107574615384,225.1391420538791L885.9795805384616,225.22923227314922L887.1484036153846,225.31911246859553L888.3172266923077,225.40876263794914L889.4860497692307,225.49822278574786L890.6548728461539,225.58749291199175L891.823695923077,225.67655301441184L892.992519,225.76541309414264L894.161342076923,225.85406315004963L895.3301651538461,225.9425131832673L896.4989882307693,226.03078319606456L897.6678113076923,226.1188331839036L898.8366343846154,226.20670315132222L901.1742805384616,226.38183301695707L902.3431036153846,226.46911291744223L903.5119266923077,226.55619279523805L904.6807497692307,226.64307265034455L905.8495728461538,226.7297624838962L907.018395923077,226.81626229589298L908.187219,226.9025720863349L909.356042076923,226.98870185635647L910.5248651538461,227.07462160255423L911.6936882307693,227.1603613283316L912.8625113076923,227.24590103141966L914.0313343846154,227.3312607140873L915.2001574615384,227.41644037633458L916.3689805384615,227.501430017027L917.5378036153846,227.5862196350301L918.7066266923077,227.67083923374727L919.8754497692307,227.7552688109096L921.0442728461538,227.83950836651704L922.213095923077,227.92356790170413L923.381919,228.00745741760528L924.550742076923,228.09115691195157L925.7195651538461,228.17466638474303L928.0572113076923,228.3411552701992L930.3948574615384,228.50692407397386L933.9013266923077,228.75425212931904L935.0701497692307,228.83634144101632L936.2389728461538,228.91824073115873L937.4077959230771,228.9999800031497L938.576619,229.0815492558547L939.745442076923,229.16293848813936L940.9142651538461,229.24413769886914L942.0830882307691,229.32518689258194L943.2519113076924,229.40606606700882L944.4207343846155,229.48675521988085L945.5895574615384,229.5672843546014L946.7583805384616,229.64763346890157L947.9272036153847,229.7278225650503L949.0960266923078,229.8078416419131L951.4336728461539,229.96737973891538L952.6024959230768,230.0468887579204L953.7713190000001,230.12623775877398L956.1089651538462,230.2844457048923L957.2777882307691,230.36329464902255L958.4466113076924,230.4419835750014L959.6154343846155,230.5205124828287L960.7842574615385,230.59887137137017L961.9530805384616,230.67707024176013L963.1219036153846,230.75510909399864L964.2907266923078,230.83297792695126L965.4595497692308,230.91069674288687L967.7971959230769,231.06563431803477L968.9660190000001,231.14287307951602L970.1348420769232,231.2199518228458L971.3036651538462,231.2968705480241L972.4724882307692,231.373629255051L974.8101343846155,231.5266766157848L975.9789574615385,231.60297527062622L977.1477805384616,231.67910390618172L978.3166036153846,231.75508252472025L979.4854266923078,231.83091112624177L980.6542497692308,231.90657970961186L981.8230728461539,231.98209827596492L982.9918959230769,232.05745682416654L984.1607190000001,232.13266535535118L985.3295420769232,232.20773387065327L986.4983651538462,232.28264236780393L987.6671882307692,232.3573908468031L988.8360113076923,232.43200931105426L990.0048343846155,232.50646775715393L992.3424805384616,232.6549345983023L993.5113036153846,232.728942993351L994.6801266923078,232.8028113725172L995.8489497692308,232.87651973353192L997.0177728461539,232.95009807979858L998.1865959230769,233.02351640791377L999.355419,233.09679472014648L1000.5242420769232,233.16992301536217L1001.6930651538462,233.24291129469535L1004.0307113076923,233.38845780457964L1005.1995343846155,233.4610060339963L1007.5371805384616,233.60568244518205L1008.7060036153846,233.67781062695113L1009.8748266923076,233.7497987928377L1011.0436497692308,233.82163694170728L1012.2124728461539,233.8933450758288L1013.3812959230769,233.9649131940678L1014.550119,234.03633129528978L1015.7189420769232,234.10761938176373L1016.8877651538462,234.17875745122066L1018.0565882307692,234.24976550592956L1019.2254113076923,234.32063354475594L1020.3942343846153,234.39137156883424L1021.5630574615385,234.46195957589558L1022.7318805384616,234.53241756820884L1023.9007036153846,234.60273554463956L1026.2383497692308,234.7429714521224L1027.4071728461538,234.8128893831745L1028.575995923077,234.88266729834405L1029.744819,234.95231519876558L1030.9136420769232,235.02182308330455L1032.0824651538462,235.09120095309547L1033.2512882307692,235.16045880927282L1034.4201113076922,235.22956664843318L1035.5889343846154,235.29854447284546L1036.7577574615386,235.36739228250968L1037.9265805384616,235.43611007742587L1039.0954036153846,235.50469785759395L1040.2642266923076,235.57316562414846L1041.4330497692308,235.641483373686L1042.6018728461538,235.7096911107444L1043.770695923077,235.7777588319203L1044.939519,235.8456965383481L1046.108342076923,235.91351423116234L1047.2771651538462,235.98120190922847L1048.4459882307692,236.0487595725466L1049.6148113076922,236.11619722225112L1050.7836343846154,236.18350485720757L1051.9524574615386,236.2506724762815L1054.2901036153846,236.38465767472306L1055.4589266923076,236.45144525068727L1056.6277497692306,236.51813281530684L1057.7965728461538,236.58469036517835L1058.965395923077,236.65111790030178L1060.134219,236.71742542181167L1061.303042076923,236.78360292857346L1062.4718651538462,236.84966042172167L1064.8095113076922,236.98141536717728L1065.9783343846154,237.04710281835023L1067.1471574615384,237.11268025704405L1068.3159805384616,237.17812768098983L1069.4848036153846,237.2434650924565L1070.6536266923076,237.30867248917508L1071.8224497692306,237.3737598722801L1072.9912728461538,237.4387272417715L1074.160095923077,237.50358459878376L1075.328919,237.56831194104797L1076.497742076923,237.63293927196753L1077.666565153846,237.69743658813903L1078.8353882307692,237.76181389069694L1080.0042113076922,237.82608118077573L1081.1730343846154,237.89021845610645L1082.3418574615384,237.9542557200925L1084.6795036153846,238.08196020608938L1085.8483266923076,238.14563742923465L1087.0171497692306,238.2092146410353L1088.1859728461538,238.27266183808786L1089.354795923077,238.3359990226613L1090.523619,238.39923619589007L1091.692442076923,238.4623433543708L1092.861265153846,238.52534050037238L1094.0300882307693,238.58821763276038L1095.1989113076922,238.65099475380373L1096.3677343846155,238.71364186009902L1097.5365574615385,238.77619895618412L1098.7053805384617,238.83862603752112L1101.0430266923076,238.96316016389227L1102.2118497692309,239.0252672089264L1104.549495923077,239.1491312592883L1105.718319,239.21090826688504L1106.887142076923,239.27257526200268L1108.055965153846,239.33412224350667L1110.3936113076923,239.45690617134628L1111.5624343846155,239.51813311654738L1112.7312574615385,239.5792400481349L1113.9000805384615,239.64026697064665L1116.2377266923077,239.76197077596393L1118.5753728461539,239.88324453249913L1120.913019,240.00409824138677L1122.081842076923,240.06436507767913L1123.250665153846,240.12453190262684L1124.4194882307693,240.18457871396097L1125.5883113076923,240.2445355150849L1127.9259574615385,240.36413908216426L1129.0947805384615,240.42377584698525L1130.2636036153847,240.4833226015961L1131.4324266923077,240.54274934259328L1132.601249769231,240.60208607338032L1133.7700728461539,240.6613127916882L1134.9388959230769,240.72044949978593L1137.276542076923,240.8384028796784L1138.445365153846,240.89721955147317L1139.6141882307693,240.95595621419224L1140.7830113076925,241.01458286443219L1141.9518343846155,241.073099502193L1143.1206574615385,241.1315261297436L1144.2894805384615,241.18984274481508L1145.4583036153847,241.2480693496764L1146.6271266923077,241.30618594205853L1147.795949769231,241.36422252536497L1148.964772846154,241.4221490961923L1150.1335959230769,241.47997565567496L1151.302419,241.53770220381293L1152.471242076923,241.59533874174073L1153.640065153846,241.65287526832387L1154.8088882307693,241.71031178356233L1155.9777113076925,241.76765828859064L1157.1465343846155,241.82490478227425L1158.3153574615385,241.88204126347873L1159.4841805384615,241.93910773674196L1160.6530036153845,241.99606419752607L1161.8218266923077,242.05292064696553L1162.990649769231,242.10968708619478L1164.159472846154,242.16635351407936L1165.328295923077,242.22292993175375L1166.497119,242.27940633808348L1167.665942076923,242.3358027353375L1168.834765153846,242.3920891201124L1171.1724113076923,242.50439185903153L1172.3412343846155,242.56040821317586L1173.5100574615385,242.61633455710995L1174.6788805384615,242.67215088856491L1175.8477036153845,242.72789721207863L1177.0165266923077,242.78353352311322L1178.185349769231,242.83907982393762L1179.354172846154,242.89454611568627L1180.522995923077,242.9499123960903L1181.691819,243.0051886662841L1182.860642076923,243.0603749262677L1184.029465153846,243.11547117604113L1186.3671113076923,243.22538364382294L1187.5359343846155,243.28021986410025L1188.7047574615385,243.33493607076394L1189.8735805384615,243.3895822694864L1192.2112266923077,243.49861463743517L1193.380049769231,243.55299080552703L1194.548872846154,243.6072769634087L1195.717695923077,243.6614731110802L1196.886519,243.7155992508104L1198.0553420769231,243.7696153780615L1200.3929882307693,243.877397604202L1201.5618113076923,243.93116370309147L1203.8994574615385,244.03843587137422L1205.0682805384615,244.09194194076753L1206.2371036153845,244.1453479988162L1207.4059266923077,244.19868404892358L1208.574749769231,244.25193008882079L1209.743572846154,244.3050961196423L1212.081219,244.41115815065464L1213.2500420769231,244.46406415198L1214.4188651538461,244.51689014422962L1216.7565113076923,244.6222720980983L1217.9253343846153,244.6748480619863L1219.0941574615385,244.72733401566407L1220.2629805384615,244.77972995913166L1221.4318036153845,244.832055894658L1223.769449769231,244.93643773508003L1224.938272846154,244.98850364111027L1226.107095923077,245.0404995391992L1228.444742076923,245.14422130474654L1229.6135651538461,245.19596717447382L1230.7823882307694,245.24762303399092L1231.9512113076923,245.2991988844323L1233.1200343846153,245.35069472579795L1234.2888574615386,245.4021205592223L1235.4576805384615,245.4534563824365L1236.6265036153845,245.50471219657499L1237.7953266923078,245.55588800163773L1238.9641497692307,245.60698379762474L1240.132972846154,245.657999584536L1241.301795923077,245.708945363506L1242.470619,245.75980113226584L1243.639442076923,245.81057689194992L1244.8082651538462,245.86127264255828L1245.9770882307694,245.91188838409093L1247.1459113076924,245.9624341176823L1249.4835574615386,246.06328555763784L1251.8212036153845,246.1638169612905L1252.9900266923078,246.21398265177217L1255.327672846154,246.31405400323936L1256.496495923077,246.36396966535938L1257.665319,246.41381531953814L1258.834142076923,246.4635909657756L1260.0029651538462,246.51327660180291L1261.1717882307694,246.56289222988894L1262.3406113076924,246.61242784889924L1263.5094343846154,246.6618934599683L1264.6782574615384,246.71128906309607L1265.8470805384616,246.7606046571481L1267.0159036153846,246.80983024098995L1268.1847266923078,246.85899581802502L1269.3535497692308,246.90808138598433L1270.522372846154,246.95709694600242L1271.691195923077,247.00603249694475L1272.860019,247.05489803994584L1274.028842076923,247.10369357500565L1275.1976651538462,247.15239909985527L1276.3664882307694,247.20105461903256L1278.7041343846154,247.2981156290255L1281.0417805384616,247.3948866061189L1282.2106036153846,247.4431620821865L1284.5482497692308,247.53950301049787L1285.7170728461538,247.5875584616072L1286.885895923077,247.63555390590972L1288.054719,247.68346934113654L1289.223542076923,247.73131476842207L1290.3923651538462,247.7790801866319L1291.5611882307694,247.8267855980349L1293.8988343846154,247.9219663947482L1295.0676574615384,247.96946178232744L1296.2364805384616,248.0168871619654L1298.5741266923078,248.1115078951486L1299.7429497692308,248.15871324982834L1300.9117728461538,248.2058485965668L1302.080595923077,248.25292393649843L1304.418242076923,248.34684459026906L1305.5870651538462,248.39370990637693L1306.7558882307694,248.44049521340904L1307.9247113076924,248.4872205136344L1309.0935343846154,248.53386580478403L1310.2623574615384,248.58045108912683L1311.4311805384616,248.62696636552838L1312.6000036153846,248.67341163398868L1313.7688266923078,248.71978689450773L1314.9376497692308,248.76611214935443L1316.1064728461538,248.81234739399093L1317.275295923077,248.85852263182065L1319.612942076923,248.9506830859252L1320.7817651538462,248.9966583010656L1321.9505882307692,249.04255350713026L1323.1194113076924,249.0883987075226L1324.2882343846154,249.13417389997366L1325.4570574615384,249.17988908561793L1326.6258805384616,249.2255242621865L1327.7947036153846,249.27109943194824L1328.9635266923078,249.3166145949032L1330.1323497692308,249.36205974991688L1331.3011728461538,249.40743489698932L1332.4699959230768,249.45274003612047L1333.638819,249.49798516844484L1334.8076420769232,249.5431802950969L1335.9764651538462,249.5882954126732L1337.1452882307692,249.63335052344272L1338.3141113076924,249.67833562627098L1340.6517574615384,249.76811581037262L1341.8205805384616,249.81291089164603L1342.9894036153846,249.85764596611264L1344.1582266923078,249.90231103263798L1345.3270497692308,249.94690609122205L1346.4958728461538,249.99145114413378L1348.833519,250.08034122726798L1350.0023420769232,250.1246862574904L1351.1711651538462,250.16897128090602L1352.3399882307692,250.21319629751486L1353.5088113076922,250.2573613073169L1357.0152805384616,250.38946629247886L1358.1841036153846,250.43337127278477L1359.3529266923078,250.47722624741834L1360.5217497692308,250.52101121411067L1361.6905728461538,250.56474617513067L1362.8593959230768,250.60840112707496L1364.028219,250.65200607334685L1365.1970420769233,250.69555101281202L1366.3658651538462,250.73902594433588L1367.5346882307692,250.78245087018746L1368.7035113076922,250.82580578809774L1369.8723343846154,250.86911070033568L1371.0411574615384,250.91233560349792L1372.2099805384617,250.95552050212228L1373.3788036153846,250.9986353928054L1374.5476266923079,251.04170027781618L1375.7164497692308,251.0846951548857L1376.8852728461538,251.12764002628285L1378.0540959230768,251.1705148897388L1379.222919,251.2133297463879L1380.3917420769233,251.2560845962302L1381.5605651538463,251.29878944040024L1382.7293882307692,251.34142427662897L1383.8982113076922,251.38400910718536L1385.0670343846155,251.4265239298005L1386.2358574615384,251.46899874787778L1388.5735036153847,251.55374836134303L1390.9111497692309,251.6382479464466L1392.0799728461539,251.68043273162436L1393.2487959230768,251.72253750772637L1394.417619,251.76460227929056L1395.5864420769233,251.80658704177898L1397.9240882307693,251.89041655087334L1400.2617343846152,251.974016033875L1401.4305574615385,252.01572076459837L1402.5993805384617,252.05738549078393L1403.7682036153847,252.09898020902818L1406.1058497692309,252.18199962623078L1407.2746728461539,252.22343432632363L1408.4434959230769,252.26480901960963L1409.612319,252.30612370608884L1410.7811420769233,252.34738838689572L1411.9499651538463,252.38858305976134L1413.1187882307693,252.4297377280891L1414.2876113076923,252.47083238961005L1415.4564343846152,252.51186704432422L1416.6252574615385,252.55285169336605L1418.9629036153847,252.6346509721638L1420.1317266923077,252.6754656019197L1421.3005497692309,252.71622022486883L1424.807019,252.83818405968225L1425.975842076923,252.87872865880757L1427.1446651538463,252.9192132511261L1428.3134882307693,252.95965783890676L1429.4823113076923,253.00003241874617L1430.6511343846153,253.04035699291325L1431.8199574615385,253.08063156140798L1432.9887805384617,253.12085612423044L1434.1576036153847,253.16102068024605L1435.3264266923077,253.20113523058933L1436.4952497692307,253.24119977526027L1437.6640728461539,253.28120431312448L1438.8328959230769,253.32114884418183L1440.001719,253.3610533707013L1441.170542076923,253.40089789041406L1442.3393651538463,253.4406924044544L1443.5081882307693,253.48043691282248L1445.8458343846153,253.5597659114071L1447.0146574615385,253.59935040162367L1448.1834805384617,253.63888488616794L1449.3523036153847,253.67836936503988L1450.5211266923077,253.71779383710503L1451.6899497692307,253.75716830349785L1452.858772846154,253.79649276421827L1454.027595923077,253.83577722040093L1455.196419,253.87499166864228L1456.365242076923,253.9141561112113L1457.534065153846,253.95328054924244L1459.8717113076923,254.03136940715325L1461.0405343846153,254.07034382816744L1462.2093574615385,254.10924824124032L1463.3781805384617,254.14811264977538L1464.5470036153847,254.18692705263805L1465.7158266923077,254.22569144982845L1466.8846497692307,254.2644058413465L1468.053472846154,254.30307022719222L1469.222295923077,254.3416846073656" style="fill: none;" fill="none"></path></g></g></g></g></g></g><g transform="translate(118, 378)" clip-path="url(#clip_1)"><clipPath id="clip_1"><rect width="1519" height="21"></rect></clipPath><g><g><line x1="0" y1="0" x2="0" y2="5" style="visibility: inherit;" fill="rgb(0, 0, 0)" stroke="rgb(204, 204, 204)" stroke-width="1px"></line><line x1="116.8823076923077" y1="0" x2="116.8823076923077" y2="5" style="visibility: inherit;" fill="rgb(0, 0, 0)" stroke="rgb(204, 204, 204)" stroke-width="1px"></line><line x1="233.7646153846154" y1="0" x2="233.7646153846154" y2="5" style="visibility: inherit;" fill="rgb(0, 0, 0)" stroke="rgb(204, 204, 204)" stroke-width="1px"></line><line x1="350.6469230769231" y1="0" x2="350.6469230769231" y2="5" style="visibility: inherit;" fill="rgb(0, 0, 0)" stroke="rgb(204, 204, 204)" stroke-width="1px"></line><line x1="467.5292307692308" y1="0" x2="467.5292307692308" y2="5" style="visibility: inherit;" fill="rgb(0, 0, 0)" stroke="rgb(204, 204, 204)" stroke-width="1px"></line><line x1="584.4115384615385" y1="0" x2="584.4115384615385" y2="5" style="visibility: inherit;" fill="rgb(0, 0, 0)" stroke="rgb(204, 204, 204)" stroke-width="1px"></line><line x1="701.2938461538462" y1="0" x2="701.2938461538462" y2="5" style="visibility: inherit;" fill="rgb(0, 0, 0)" stroke="rgb(204, 204, 204)" stroke-width="1px"></line><line x1="818.1761538461539" y1="0" x2="818.1761538461539" y2="5" style="visibility: inherit;" fill="rgb(0, 0, 0)" stroke="rgb(204, 204, 204)" stroke-width="1px"></line><line x1="935.0584615384616" y1="0" x2="935.0584615384616" y2="5" style="visibility: inherit;" fill="rgb(0, 0, 0)" stroke="rgb(204, 204, 204)" stroke-width="1px"></line><line x1="1051.9407692307693" y1="0" x2="1051.9407692307693" y2="5" style="visibility: inherit;" fill="rgb(0, 0, 0)" stroke="rgb(204, 204, 204)" stroke-width="1px"></line><line x1="1168.823076923077" y1="0" x2="1168.823076923077" y2="5" style="visibility: inherit;" fill="rgb(0, 0, 0)" stroke="rgb(204, 204, 204)" stroke-width="1px"></line><line x1="1285.7053846153847" y1="0" x2="1285.7053846153847" y2="5" style="visibility: inherit;" fill="rgb(0, 0, 0)" stroke="rgb(204, 204, 204)" stroke-width="1px"></line><line x1="1402.5876923076924" y1="0" x2="1402.5876923076924" y2="5" style="visibility: inherit;" fill="rgb(0, 0, 0)" stroke="rgb(204, 204, 204)" stroke-width="1px"></line><line x1="1519.47" y1="0" x2="1519.47" y2="5" style="visibility: inherit;" fill="rgb(0, 0, 0)" stroke="rgb(204, 204, 204)" stroke-width="1px"></line></g><g transform="translate(0, 8)"><text x="0" y="0" dx="0em" dy="0.95em" style="text-anchor: middle; visibility: hidden; font-family: &quot;Helvetica Neue&quot;, sans-serif; font-size: 12px; font-weight: 200;" fill="rgb(50, 49, 63)" stroke="none" stroke-width="1px">-10.00k</text><text x="116.8823076923077" y="0" dx="0em" dy="0.95em" style="text-anchor: middle; visibility: inherit; font-family: &quot;Helvetica Neue&quot;, sans-serif; font-size: 12px; font-weight: 200;" fill="rgb(50, 49, 63)" stroke="none" stroke-width="1px">0.000</text><text x="233.7646153846154" y="0" dx="0em" dy="0.95em" style="text-anchor: middle; visibility: inherit; font-family: &quot;Helvetica Neue&quot;, sans-serif; font-size: 12px; font-weight: 200;" fill="rgb(50, 49, 63)" stroke="none" stroke-width="1px">10.00k</text><text x="350.6469230769231" y="0" dx="0em" dy="0.95em" style="text-anchor: middle; visibility: inherit; font-family: &quot;Helvetica Neue&quot;, sans-serif; font-size: 12px; font-weight: 200;" fill="rgb(50, 49, 63)" stroke="none" stroke-width="1px">20.00k</text><text x="467.5292307692308" y="0" dx="0em" dy="0.95em" style="text-anchor: middle; visibility: inherit; font-family: &quot;Helvetica Neue&quot;, sans-serif; font-size: 12px; font-weight: 200;" fill="rgb(50, 49, 63)" stroke="none" stroke-width="1px">30.00k</text><text x="584.4115384615385" y="0" dx="0em" dy="0.95em" style="text-anchor: middle; visibility: inherit; font-family: &quot;Helvetica Neue&quot;, sans-serif; font-size: 12px; font-weight: 200;" fill="rgb(50, 49, 63)" stroke="none" stroke-width="1px">40.00k</text><text x="701.2938461538462" y="0" dx="0em" dy="0.95em" style="text-anchor: middle; visibility: inherit; font-family: &quot;Helvetica Neue&quot;, sans-serif; font-size: 12px; font-weight: 200;" fill="rgb(50, 49, 63)" stroke="none" stroke-width="1px">50.00k</text><text x="818.1761538461539" y="0" dx="0em" dy="0.95em" style="text-anchor: middle; visibility: inherit; font-family: &quot;Helvetica Neue&quot;, sans-serif; font-size: 12px; font-weight: 200;" fill="rgb(50, 49, 63)" stroke="none" stroke-width="1px">60.00k</text><text x="935.0584615384616" y="0" dx="0em" dy="0.95em" style="text-anchor: middle; visibility: inherit; font-family: &quot;Helvetica Neue&quot;, sans-serif; font-size: 12px; font-weight: 200;" fill="rgb(50, 49, 63)" stroke="none" stroke-width="1px">70.00k</text><text x="1051.9407692307693" y="0" dx="0em" dy="0.95em" style="text-anchor: middle; visibility: inherit; font-family: &quot;Helvetica Neue&quot;, sans-serif; font-size: 12px; font-weight: 200;" fill="rgb(50, 49, 63)" stroke="none" stroke-width="1px">80.00k</text><text x="1168.823076923077" y="0" dx="0em" dy="0.95em" style="text-anchor: middle; visibility: inherit; font-family: &quot;Helvetica Neue&quot;, sans-serif; font-size: 12px; font-weight: 200;" fill="rgb(50, 49, 63)" stroke="none" stroke-width="1px">90.00k</text><text x="1285.7053846153847" y="0" dx="0em" dy="0.95em" style="text-anchor: middle; visibility: inherit; font-family: &quot;Helvetica Neue&quot;, sans-serif; font-size: 12px; font-weight: 200;" fill="rgb(50, 49, 63)" stroke="none" stroke-width="1px">100.0k</text><text x="1402.5876923076924" y="0" dx="0em" dy="0.95em" style="text-anchor: middle; visibility: inherit; font-family: &quot;Helvetica Neue&quot;, sans-serif; font-size: 12px; font-weight: 200;" fill="rgb(50, 49, 63)" stroke="none" stroke-width="1px">110.0k</text><text x="1519.47" y="0" dx="0em" dy="0.95em" style="text-anchor: middle; visibility: hidden; font-family: &quot;Helvetica Neue&quot;, sans-serif; font-size: 12px; font-weight: 200;" fill="rgb(50, 49, 63)" stroke="none" stroke-width="1px">120.0k</text></g><line x1="0" y1="0" x2="1519.47" y2="0" fill="rgb(0, 0, 0)" stroke="rgb(204, 204, 204)" stroke-width="1px"></line></g></g></g></g></svg>